  <svg width="36" height="36" viewBox="0 0 36 36" fill="none" xmlns="http://www.w3.org/2000/svg">
    <path
      d="M10.6667 19.4494C10.6667 19.4494 12.6667 22.116 16 22.116C19.3333 22.116 21.3333 19.4494 21.3333 19.4494M22.6667 13.1027C22.14 13.7494 21.42 14.116 20.6667 14.116C19.9133 14.116 19.2133 13.7494 18.6667 13.1027M13.3333 13.1027C12.8067 13.7494 12.0867 14.116 11.3333 14.116C10.58 14.116 9.88 13.7494 9.33333 13.1027M29.3333 16.7827C29.3333 24.1465 23.3638 30.116 16 30.116C8.6362 30.116 2.66667 24.1465 2.66667 16.7827C2.66667 9.41892 8.6362 3.44938 16 3.44938C23.3638 3.44938 29.3333 9.41892 29.3333 16.7827Z"
      stroke="#FE6500" stroke-width="3" stroke-linecap="round" stroke-linejoin="round"/>
  </svg>
